<svg width="57" height="57" viewBox="0 0 57 57" fill="none" xmlns="http://www.w3.org/2000/svg">
<ellipse cx="28.8333" cy="28.5883" rx="28" ry="28.3832" fill="#9D90FA" fill-opacity="0.25"/>
<path d="M38.4336 27.7545H28.6555V17.8425C28.6555 17.7206 28.5571 17.6208 28.4368 17.6208H27.7258C26.2911 17.6193 24.8701 17.905 23.5445 18.4615C22.219 19.018 21.0148 19.8344 20.0012 20.8638C19.0033 21.8723 18.2083 23.0678 17.6606 24.384C17.0918 25.7505 16.802 27.2001 16.802 28.6969C16.802 30.1936 17.0918 31.6405 17.6606 33.007C18.2102 34.3236 18.9977 35.5099 20.0012 36.5272C21.0047 37.5444 22.1723 38.3427 23.4739 38.8999C24.8196 39.4786 26.2668 39.7756 27.7286 39.773C29.1633 39.7745 30.5843 39.4887 31.9099 38.9322C33.2354 38.3757 34.4396 37.5593 35.4532 36.53C36.4567 35.5127 37.2442 34.3292 37.7938 33.0098C38.3647 31.6457 38.6577 30.1787 38.6551 28.6969V27.9762C38.6524 27.8542 38.554 27.7545 38.4336 27.7545ZM40.8372 26.2161L40.7661 25.4345C40.5336 22.8844 39.418 20.4785 37.6188 18.663C35.8213 16.8424 33.4525 15.7158 30.9223 15.4782L30.1485 15.4061C30.02 15.395 29.9106 15.4948 29.9106 15.6251V26.2605C29.9106 26.3824 30.009 26.4822 30.1293 26.4822L40.6184 26.4545C40.7469 26.4517 40.8481 26.3436 40.8372 26.2161Z" fill="#9D90FA"/>
</svg>
